<svg width="40" height="41" viewBox="0 0 40 41" fill="none" xmlns="http://www.w3.org/2000/svg">
<path d="M19.78 39.6602C30.4226 39.6602 39.05 31.0322 39.05 20.3896C39.05 9.74712 30.4226 1.12012 19.78 1.12012C9.1375 1.12012 0.51001 9.74712 0.51001 20.3896C0.51001 31.0322 9.1375 39.6602 19.78 39.6602Z" stroke="white" stroke-width="0.96" stroke-miterlimit="10"/>
<path d="M27.39 25.96L28.24 20.3896H22.89V16.7695C22.89 15.2495 23.64 13.7598 26.03 13.7598H28.46V9.01953C28.46 9.01953 26.25 8.63965 24.15 8.63965C19.75 8.63965 16.87 11.3096 16.87 16.1396V20.3896H11.98V25.96H16.87V39.4297C17.85 39.5797 18.86 39.6602 19.88 39.6602C20.9 39.6602 21.91 39.5797 22.89 39.4297V25.96H27.38H27.39Z" fill="white"/>
</svg>
