<svg width="14" height="19" viewBox="0 0 14 19" fill="none" xmlns="http://www.w3.org/2000/svg">
<path d="M6.96002 18.0596C6.79002 18.0596 6.62001 17.9904 6.51001 17.8604C6.25001 17.5804 0.0499878 10.8604 0.0499878 7.19043C0.0499878 3.52043 3.15002 0.280273 6.96002 0.280273C10.77 0.280273 13.87 3.38043 13.87 7.19043C13.87 11.0004 7.66997 17.5804 7.40997 17.8604C7.28997 17.9904 7.13002 18.0596 6.96002 18.0596ZM6.96002 1.50977C3.83002 1.50977 1.28003 4.06043 1.28003 7.19043C1.28003 9.63043 5.03002 14.3595 6.96002 16.5195C8.89002 14.3495 12.64 9.63043 12.64 7.19043C12.64 4.06043 10.09 1.50977 6.96002 1.50977Z" fill="white"/>
<path d="M6.96002 10C5.24002 10 3.84998 8.59965 3.84998 6.88965C3.84998 5.17965 5.25002 3.78027 6.96002 3.78027C8.67002 3.78027 10.07 5.17965 10.07 6.88965C10.07 8.59965 8.67002 10 6.96002 10ZM6.96002 5.00977C5.93002 5.00977 5.08002 5.84965 5.08002 6.88965C5.08002 7.92965 5.92002 8.76953 6.96002 8.76953C8.00002 8.76953 8.84003 7.92965 8.84003 6.88965C8.84003 5.84965 8.00002 5.00977 6.96002 5.00977Z" fill="white"/>
</svg>
