<svg width="41" height="41" viewBox="0 0 41 41" fill="none" xmlns="http://www.w3.org/2000/svg">
<path d="M20.67 39.6602C31.3126 39.6602 39.9399 31.0322 39.9399 20.3896C39.9399 9.74712 31.3126 1.12012 20.67 1.12012C10.0275 1.12012 1.40002 9.74712 1.40002 20.3896C1.40002 31.0322 10.0275 39.6602 20.67 39.6602Z" stroke="white" stroke-width="0.96" stroke-miterlimit="10"/>
<path d="M12.1099 21.8799C12.1099 21.8799 12.1899 21.8799 12.2199 21.8799C13.7999 21.8799 15.3799 21.8799 16.9699 21.8799C17.0399 21.8799 17.0699 21.8897 17.0699 21.9697C17.0699 22.1897 17.0699 22.4196 17.0699 22.6396C17.0699 22.9796 16.8199 23.2302 16.4799 23.2402C16.3399 23.2402 16.2 23.2402 16.06 23.2402C14.16 23.2402 12.2599 23.2402 10.3699 23.2402C10.2799 23.2402 10.1499 23.2805 10.0999 23.2305C10.0399 23.1705 10.0899 23.0502 10.0799 22.9502C10.0799 22.8202 10.0799 22.6798 10.0999 22.5498C10.1399 22.3198 10.24 22.1204 10.38 21.9404C11.89 20.0704 13.4 18.2001 14.91 16.3301C14.93 16.3101 14.9399 16.2898 14.9599 16.2598C14.9199 16.2398 14.8899 16.25 14.8599 16.25C13.3599 16.25 11.8499 16.25 10.3499 16.25C10.2699 16.25 10.2499 16.2304 10.2499 16.1504C10.2499 15.7204 10.2499 15.3001 10.2499 14.8701C10.2499 14.8001 10.2599 14.7803 10.3299 14.7803C12.5399 14.7803 14.7499 14.7803 16.9499 14.7803C17.0199 14.7803 17.04 14.8004 17.04 14.8604C17.04 15.1504 17.04 15.44 16.92 15.71C16.83 15.92 16.7 16.0895 16.56 16.2695C15.33 17.8095 14.0999 19.3604 12.8699 20.9004C12.6399 21.1904 12.4 21.4903 12.17 21.7803C12.15 21.8003 12.1399 21.8204 12.1099 21.8604V21.8799Z" fill="white"/>
<path d="M22.67 22.6598C22.47 22.8098 22.26 22.9192 22.04 23.0192C21.76 23.1492 21.46 23.2292 21.16 23.2692C20.97 23.2992 20.7699 23.3095 20.5799 23.2995C20.3699 23.2995 20.1599 23.2596 19.9499 23.2096C19.4799 23.0996 19.05 22.8895 18.67 22.5895C18.2 22.2095 17.8499 21.7394 17.6299 21.1794C17.5199 20.8894 17.44 20.5899 17.42 20.2799C17.34 18.9499 17.8699 17.9201 18.9799 17.1901C19.3999 16.9101 19.8699 16.7696 20.3699 16.7096C20.9399 16.6496 21.49 16.7399 22.02 16.9499C22.22 17.0299 22.4099 17.1294 22.5899 17.2594C22.6099 17.2794 22.64 17.3095 22.67 17.2995C22.69 17.2895 22.67 17.2494 22.68 17.2194C22.68 17.1294 22.68 17.0301 22.68 16.9401C22.68 16.8901 22.6799 16.8698 22.7399 16.8698C23.1499 16.8698 23.5599 16.8698 23.9799 16.8698C24.0599 16.8698 24.04 16.9096 24.04 16.9596C24.04 17.6696 24.04 18.3795 24.04 19.0895C24.04 20.4495 24.04 21.7998 24.04 23.1598C24.04 23.2398 24.0199 23.2694 23.9399 23.2594C23.6799 23.2494 23.43 23.2797 23.17 23.2497C22.93 23.2197 22.7799 23.08 22.6999 22.86C22.6799 22.81 22.66 22.7496 22.67 22.6696V22.6598ZM22.65 19.9997C22.67 18.9597 21.7799 17.9995 20.5999 18.0495C19.6499 18.0995 18.78 18.8799 18.76 19.9899C18.75 21.0399 19.64 21.9901 20.79 21.9401C21.86 21.9001 22.67 21.0097 22.65 19.9997Z" fill="white"/>
<path d="M30.9599 16.6301C32.8199 16.6401 34.31 18.1504 34.29 19.9904C34.27 21.8304 32.7599 23.32 30.9399 23.3C29.0999 23.28 27.61 21.7804 27.63 19.9504C27.65 18.1104 29.1499 16.6101 30.9699 16.6301H30.9599ZM32.91 19.9807C32.91 18.8907 32.0399 18.0197 30.9499 18.0197C29.8699 18.0197 28.9899 18.9007 28.9899 19.9807C28.9899 21.0607 29.8699 21.9406 30.9499 21.9406C32.0399 21.9406 32.91 21.0707 32.91 19.9807Z" fill="white"/>
<path d="M26.66 19.0195C26.66 20.3895 26.66 21.7696 26.66 23.1396C26.66 23.2096 26.6501 23.2402 26.5601 23.2402C26.2801 23.2402 26.01 23.2402 25.73 23.2402C25.39 23.2402 25.2 23.0402 25.2 22.7002C25.2 20.0902 25.2 17.4799 25.2 14.8799C25.2 14.8099 25.22 14.79 25.29 14.79C25.72 14.79 26.15 14.79 26.58 14.79C26.65 14.79 26.66 14.8099 26.66 14.8799C26.66 16.2599 26.66 17.6395 26.66 19.0195Z" fill="white"/>
<path d="M10.4301 4.5C10.4301 4.5 10.44 4.48047 10.45 4.48047C10.45 4.48047 10.4301 4.49 10.4301 4.5Z" fill="white"/>
<path d="M34.96 32.0098C34.96 32.0098 34.9599 32.0303 34.9399 32.0303C34.9399 32.0203 34.94 32.0098 34.96 32.0098Z" fill="white"/>
<path d="M37.4301 29.9004C29.7001 37.4004 16.6 34.3605 12.98 32.4805C10.12 34.0205 7.29004 33.1602 7.29004 33.1602L8 33.0195C9.9 30.5695 9.34999 29.5102 8.48999 27.9902C1.06999 13.5802 8.86995 5.61957 12.2 3.05957C5.79995 6.18957 1.39001 12.7699 1.39001 20.3799C1.39001 31.0199 10.02 39.6504 20.66 39.6504C27.84 39.6504 34.11 35.7197 37.42 29.8896L37.4301 29.9004Z" fill="white"/>
</svg>
