<svg width="41" height="41" viewBox="0 0 41 41" fill="none" xmlns="http://www.w3.org/2000/svg">
<path d="M20.48 39.6602C31.1225 39.6602 39.75 31.0322 39.75 20.3896C39.75 9.74712 31.1225 1.12012 20.48 1.12012C9.83745 1.12012 1.20996 9.74712 1.20996 20.3896C1.20996 31.0322 9.83745 39.6602 20.48 39.6602Z" stroke="white" stroke-width="0.96" stroke-miterlimit="10"/>
<path d="M30.8 17.6299C30.8 15.0699 28.73 13 26.17 13H14.34C11.78 13 9.70996 15.0699 9.70996 17.6299V23.1396C9.70996 25.6996 11.78 27.7695 14.34 27.7695H26.17C28.73 27.7695 30.8 25.6996 30.8 23.1396V17.6299ZM23.84 20.7998L18.53 23.4297C18.32 23.5397 17.62 23.3902 17.62 23.1602V17.7695C17.62 17.5295 18.33 17.38 18.54 17.5L23.62 20.2598C23.83 20.3798 24.06 20.6896 23.84 20.8096V20.7998Z" fill="white"/>
</svg>
