<svg width="1841" height="246" viewBox="0 0 1841 246" fill="none" xmlns="http://www.w3.org/2000/svg">
<g opacity="0.4">
<path d="M98.27 57.8799C87.06 51.9199 73.76 48.9399 58.39 48.9399H1.47003V198.39H58.97C74.15 198.39 87.31 195.41 98.45 189.45C109.59 183.49 118.2 174.93 124.28 163.76C130.36 152.59 133.4 139.23 133.4 123.66C133.4 108.09 130.35 94.7301 124.24 83.5601C118.13 72.3901 109.47 63.8301 98.26 57.8701L98.27 57.8799ZM88.42 148.04C85.67 153.88 81.68 157.99 76.45 160.37C71.22 162.75 64.91 163.95 57.51 163.95H42.04V83.3899H56.34C64.12 83.3899 70.7 84.58 76.08 86.97C81.46 89.35 85.54 93.46 88.34 99.3C91.14 105.14 92.54 113.26 92.54 123.67C92.54 134.08 91.17 142.21 88.42 148.04Z" stroke="#6D6E71" stroke-width="2.91" stroke-miterlimit="10"/>
<path d="M293.32 62.8101C292.71 67.5801 290.79 71.2799 287.55 73.8999C285.96 75.1899 283.8 76.1601 281.09 76.8201V48.95H240.52V141.19C240.52 145.81 239.5 149.94 237.46 153.56C235.42 157.18 232.59 160.02 228.99 162.06C225.39 164.1 221.25 165.12 216.58 165.12C211.91 165.12 207.83 164.1 204.21 162.06C200.59 160.02 197.75 157.18 195.71 153.56C193.67 149.94 192.65 145.81 192.65 141.19V48.95H152.08V144.69C152.08 156.07 154.77 165.91 160.14 174.21C165.52 182.51 173.04 188.9 182.73 193.4C192.41 197.9 203.7 200.15 216.59 200.15C229.48 200.15 240.62 197.9 250.3 193.4C259.98 188.9 267.53 182.5 272.96 174.21C278.38 165.92 281.1 156.08 281.1 144.69V95.1001C288.42 94.2601 294.39 92.4299 298.98 89.6299C305.55 85.6199 310.1 79.9 312.63 72.48C315.16 65.06 316.42 56.24 316.42 46.03H294.24C294.24 52.45 293.94 58.0501 293.33 62.8101H293.32Z" stroke="#6D6E71" stroke-width="2.91" stroke-miterlimit="10"/>
<path d="M460.11 66.1299C458.85 69.3199 456.74 71.53 453.79 72.8C448.2 65.65 441.43 59.94 433.47 55.7C422.47 49.84 410.21 46.9099 396.69 46.9099C383.17 46.9099 370.77 49.84 359.8 55.7C348.83 61.56 340.12 70.2001 333.67 81.6101C327.22 93.0201 324 107.04 324 123.68C324 140.32 327.22 154.2 333.67 165.6C340.12 177.01 348.82 185.67 359.8 191.58C370.77 197.49 383.07 200.45 396.69 200.45C410.31 200.45 422.47 197.52 433.47 191.66C444.46 185.8 453.2 177.16 459.67 165.75C466.14 154.34 469.38 140.32 469.38 123.68C469.38 110.32 467.29 98.6499 463.12 88.6599C468.6 86.5999 472.97 83.32 476.21 78.8C482.17 70.48 485.15 58.88 485.15 43.99H463.26C463.26 53.48 462.21 60.8599 460.12 66.1399L460.11 66.1299ZM424.1 146.33C421.74 152.48 418.26 157.16 413.66 160.34C409.06 163.53 403.41 165.12 396.69 165.12C389.97 165.12 384.32 163.53 379.72 160.34C375.12 157.15 371.64 152.48 369.28 146.33C366.92 140.18 365.74 132.62 365.74 123.67C365.74 114.72 366.92 107.17 369.28 101.01C371.64 94.86 375.12 90.19 379.72 87C384.32 83.81 389.97 82.22 396.69 82.22C403.41 82.22 409.06 83.81 413.66 87C418.26 90.19 421.74 94.86 424.1 101.01C426.46 107.16 427.64 114.72 427.64 123.67C427.64 132.62 426.46 140.17 424.1 146.33Z" stroke="#6D6E71" stroke-width="2.91" stroke-miterlimit="10"/>
<path d="M396.69 206.86C391.24 206.86 386.57 208.66 382.68 212.26C378.79 215.86 376.84 220.19 376.84 225.25C376.84 230.31 378.79 234.64 382.68 238.24C386.57 241.84 391.27 243.64 396.76 243.64C402.25 243.64 406.87 241.84 410.73 238.24C414.6 234.64 416.53 230.31 416.53 225.25C416.53 220.19 414.6 215.86 410.73 212.26C406.86 208.66 402.18 206.86 396.68 206.86H396.69Z" stroke="#6D6E71" stroke-width="2.91" stroke-miterlimit="10"/>
<path d="M552.53 87.1799C557.22 83.8699 562.98 82.22 569.79 82.22C573.68 82.22 577.16 82.7701 580.23 83.8601C583.29 84.9501 585.91 86.51 588.07 88.53C590.23 90.55 591.94 92.95 593.18 95.72C594.42 98.49 595.19 101.58 595.48 104.99H636.64C635.86 95.7 633.65 87.45 630 80.25C626.35 73.05 621.53 66.98 615.55 62.04C609.57 57.1 602.61 53.34 594.68 50.77C586.75 48.19 578.07 46.8999 568.63 46.8999C555.2 46.8999 543.04 49.8299 532.14 55.6899C521.24 61.5499 512.58 70.1901 506.16 81.6001C499.74 93.0101 496.53 107.03 496.53 123.67C496.53 140.31 499.68 154.2 505.98 165.63C512.28 177.06 520.87 185.72 531.74 191.61C542.61 197.5 554.91 200.44 568.63 200.44C579.58 200.44 589.18 198.76 597.46 195.41C605.73 192.05 612.68 187.61 618.29 182.09C623.91 176.57 628.25 170.54 631.32 163.99C634.39 157.45 636.16 151.01 636.65 144.69L595.49 144.4C595 147.61 594.07 150.49 592.68 153.05C591.29 155.6 589.51 157.78 587.32 159.58C585.13 161.38 582.55 162.75 579.58 163.7C576.61 164.65 573.26 165.12 569.51 165.12C562.94 165.12 557.32 163.58 552.65 160.49C547.98 157.4 544.42 152.78 541.96 146.63C539.5 140.48 538.27 132.83 538.27 123.68C538.27 115.02 539.47 107.6 541.88 101.42C544.29 95.2399 547.84 90.4999 552.53 87.1899V87.1799Z" stroke="#6D6E71" stroke-width="2.91" stroke-miterlimit="10"/>
<path d="M789.51 55.51C781.19 51.13 771.49 48.9399 760.39 48.9399H695.88V198.39H736.45V154.02H758.93C770.31 154.02 780.27 151.9 788.81 147.67C797.35 143.44 803.99 137.41 808.73 129.57C813.47 121.74 815.84 112.47 815.84 101.77C815.84 91.07 813.53 81.9 808.91 73.97C804.29 66.04 797.82 59.89 789.5 55.51H789.51ZM770.79 112.79C768.97 115.9 766.36 118.3 762.98 119.98C759.6 121.66 755.52 122.5 750.76 122.5H736.46V81.3401H750.76C755.53 81.3401 759.6 82.16 762.98 83.78C766.36 85.41 768.96 87.75 770.79 90.79C772.61 93.83 773.53 97.49 773.53 101.77C773.53 106.05 772.62 109.68 770.79 112.79Z" stroke="#6D6E71" stroke-width="2.91" stroke-miterlimit="10"/>
<path d="M925.02 107.32H871.31V48.95H830.74V198.4H871.31V140.02H925.02V198.4H965.59V48.95H925.02V107.32Z" stroke="#6D6E71" stroke-width="2.91" stroke-miterlimit="10"/>
<path d="M1084.4 2.23999H1049.95L1035.94 34.9299H1062.5L1084.4 2.23999Z" stroke="#6D6E71" stroke-width="2.91" stroke-miterlimit="10"/>
<path d="M1073.3 141.18C1073.3 145.8 1072.28 149.93 1070.24 153.55C1068.2 157.17 1065.37 160.01 1061.78 162.05C1058.18 164.09 1054.04 165.11 1049.37 165.11C1044.7 165.11 1040.63 164.09 1037 162.05C1033.37 160.01 1030.54 157.17 1028.5 153.55C1026.46 149.93 1025.43 145.8 1025.43 141.18V48.9399H984.86V144.68C984.86 156.06 987.55 165.9 992.92 174.2C998.29 182.5 1005.82 188.89 1015.51 193.39C1025.19 197.89 1036.48 200.14 1049.37 200.14C1062.26 200.14 1073.4 197.89 1083.08 193.39C1092.76 188.89 1100.31 182.49 1105.74 174.2C1111.16 165.91 1113.88 156.07 1113.88 144.68V48.9399H1073.31V141.18H1073.3Z" stroke="#6D6E71" stroke-width="2.91" stroke-miterlimit="10"/>
<path d="M1188.57 87.1799C1193.26 83.8699 1199.02 82.22 1205.83 82.22C1209.72 82.22 1213.2 82.7701 1216.27 83.8601C1219.34 84.9501 1221.95 86.51 1224.12 88.53C1226.28 90.55 1227.99 92.95 1229.23 95.72C1230.47 98.49 1231.24 101.58 1231.53 104.99H1272.69C1271.91 95.7 1269.7 87.45 1266.05 80.25C1262.4 73.05 1257.59 66.98 1251.6 62.04C1245.62 57.1 1238.66 53.34 1230.73 50.77C1222.8 48.19 1214.12 46.8999 1204.68 46.8999C1191.25 46.8999 1179.09 49.8299 1168.19 55.6899C1157.29 61.5499 1148.63 70.1901 1142.21 81.6001C1135.79 93.0101 1132.58 107.03 1132.58 123.67C1132.58 140.31 1135.73 154.2 1142.03 165.63C1148.33 177.06 1156.92 185.72 1167.79 191.61C1178.66 197.5 1190.96 200.44 1204.68 200.44C1215.63 200.44 1225.23 198.76 1233.5 195.41C1241.77 192.06 1248.72 187.61 1254.34 182.09C1259.96 176.57 1264.3 170.54 1267.37 163.99C1270.43 157.45 1272.21 151.01 1272.7 144.69L1231.54 144.4C1231.05 147.61 1230.12 150.49 1228.73 153.05C1227.34 155.6 1225.56 157.78 1223.37 159.58C1221.18 161.38 1218.6 162.75 1215.63 163.7C1212.66 164.65 1209.3 165.12 1205.56 165.12C1198.99 165.12 1193.37 163.58 1188.7 160.49C1184.03 157.4 1180.47 152.78 1178.01 146.63C1175.55 140.48 1174.32 132.83 1174.32 123.68C1174.32 115.02 1175.52 107.6 1177.93 101.42C1180.34 95.2399 1183.89 90.4999 1188.58 87.1899L1188.57 87.1799Z" stroke="#6D6E71" stroke-width="2.91" stroke-miterlimit="10"/>
<path d="M1404.6 154.32H1403.44L1372.79 48.95H1326.96L1376.29 198.4H1431.75L1481.08 48.95H1435.25L1404.6 154.32Z" stroke="#6D6E71" stroke-width="2.91" stroke-miterlimit="10"/>
<path d="M1535.95 48.95H1495.38V198.4H1535.95V48.95Z" stroke="#6D6E71" stroke-width="2.91" stroke-miterlimit="10"/>
<path d="M1643.96 127.17H1642.79L1589.66 48.95H1555.22V198.4H1595.79V119.88H1596.67L1650.67 198.4H1684.53V48.95H1643.96V127.17Z" stroke="#6D6E71" stroke-width="2.91" stroke-miterlimit="10"/>
<path d="M1798.08 48.95V107.32H1744.37V48.95H1703.79V198.4H1744.37V140.02H1798.08V198.4H1838.65V48.95H1798.08Z" stroke="#6D6E71" stroke-width="2.91" stroke-miterlimit="10"/>
</g>
</svg>
